<svg xmlns="http://www.w3.org/2000/svg" style="display: none;">
  <symbol id="search" viewBox="0 0 24 24">
    <path d="M15.5 14h-.79l-.28-.27C15.41 12.59 16 11.11 16 9.5 16 5.91 13.09 3 9.5 3S3 5.91 3 9.5 5.91 16 9.5 16c1.59 0 3.07-.59 4.28-1.57l.27.28v.79l5 4.99L20.49 19l-4.99-5zm-6 0C7.01 14 5 11.99 5 9.5S7.01 5 9.5 5 14 7.01 14 9.5 11.99 14 9.5 14z"/>
  </symbol>

  <symbol id="home" viewBox="0 0 24 24">
    <path d="M10 20v-6h4v6h5v-8h3L12 3 2 12h3v8z"/>
  </symbol>

  <symbol id="backspace"  viewBox="0 0 24 24" >
    <path d="m22 6c0-.552-.448-1-1-1h-12.628c-.437 0-.853.191-1.138.523-1.078 1.256-3.811 4.439-4.993 5.815-.16.187-.241.419-.241.651 0 .231.08.463.24.651 1.181 1.38 3.915 4.575 4.994 5.835.285.333.701.525 1.14.525h12.626c.552 0 1-.448 1-1 0-2.577 0-9.423 0-12zm-13.628.5h12.128v11h-12.126l-4.715-5.51zm5.637 4.427 1.71-1.71c.146-.146.339-.219.531-.219.404 0 .75.324.75.749 0 .193-.073.384-.219.531l-1.711 1.711 1.728 1.728c.147.147.22.339.22.53 0 .427-.349.751-.75.751-.192 0-.384-.073-.531-.219l-1.728-1.729-1.728 1.729c-.146.146-.339.219-.531.219-.401 0-.75-.324-.75-.751 0-.191.073-.383.22-.53l1.728-1.728-1.788-1.787c-.146-.148-.219-.339-.219-.532 0-.425.346-.749.751-.749.192 0 .384.073.53.219z" />
  </symbol>
</svg>
