<svg xmlns="http://www.w3.org/2000/svg" viewBox="0 0 340.796 287.394" width="681.592" height="574.788"><g stroke-linecap="round"><path d="M42 10h256.8c21.33 0 32 10.67 32 32v203.39c0 21.34-10.67 32-32 32H42c-21.33 0-32-10.66-32-32V42c0-21.33 10.67-32 32-32" fill="none"/><path d="M42 10h256.8M42 10h256.8m0 0c21.33 0 32 10.67 32 32m-32-32c21.33 0 32 10.67 32 32m0 0v203.39m0-203.39v203.39m0 0c0 21.34-10.67 32-32 32m32-32c0 21.34-10.67 32-32 32m0 0H42m256.8 0H42m0 0c-21.33 0-32-10.66-32-32m32 32c-21.33 0-32-10.66-32-32m0 0V42m0 203.39V42m0 0c0-21.33 10.67-32 32-32M10 42c0-21.33 10.67-32 32-32" stroke="transparent" fill="none"/></g><path d="M41.747 240.806V30.886m0 209.92V30.886M258.678 30.769c4.02 2.32 17.35 7.76 24.13 13.93 6.79 6.17 12.97 15.27 16.56 23.08 3.6 7.81 5.15 15.14 5 23.78-.14 8.64-2.72 20.52-5.86 28.08-3.14 7.56-7.85 13.11-12.96 17.29-5.12 4.18-14.77 6.48-17.72 7.78m-9.15-113.94c4.02 2.32 17.35 7.76 24.13 13.93 6.79 6.17 12.97 15.27 16.56 23.08 3.6 7.81 5.15 15.14 5 23.78-.14 8.64-2.72 20.52-5.86 28.08-3.14 7.56-7.85 13.11-12.96 17.29-5.12 4.18-14.77 6.48-17.72 7.78M267.257 149.87c3.27 2.03 14.3 7.32 19.6 12.16 5.31 4.84 9.28 10.41 12.22 16.88 2.93 6.47 5.38 13.51 5.39 21.93.01 8.41-1.89 20.6-5.34 28.57-3.45 7.96-9.22 14.38-15.37 19.21-6.15 4.82-17.95 8.12-21.54 9.74m5.04-108.49c3.27 2.03 14.3 7.32 19.6 12.16 5.31 4.84 9.28 10.41 12.22 16.88 2.93 6.47 5.38 13.51 5.39 21.93.01 8.41-1.89 20.6-5.34 28.57-3.45 7.96-9.22 14.38-15.37 19.21-6.15 4.82-17.95 8.12-21.54 9.74M267.472 145.563c.02.6.12 3.01.14 3.61m-.14-3.61c.02.6.12 3.01.14 3.61M262.087 258.36h-73.03m73.03 0h-73.03M188.66 53.615v48.58m0-48.58v48.58M179.147 181.134h58.06m-58.06 0h58.06M209.21 102.716v-53.09m0 53.09v-53.09M224.217 236.002h28.08m-28.08 0h28.08M223.849 50.386h28.03m-28.03 0h28.03" stroke="#fff" stroke-width="4" fill="none" stroke-linecap="round"/><path d="M252.313 155.816c1.76.93 7.47 3.38 10.55 5.6 3.08 2.22 5.6 4.84 7.94 7.71 2.35 2.87 4.43 5.98 6.13 9.52 1.7 3.54 3.26 7.74 4.05 11.72.78 3.97.94 8.44.67 12.12-.27 3.68-1.1 6.86-2.29 9.95-1.19 3.09-2.77 5.68-4.86 8.58-2.09 2.91-4.16 6.36-7.69 8.86-3.53 2.5-11.24 5.11-13.49 6.13m-1.01-80.19c1.76.93 7.47 3.38 10.55 5.6 3.08 2.22 5.6 4.84 7.94 7.71 2.35 2.87 4.43 5.98 6.13 9.52 1.7 3.54 3.26 7.74 4.05 11.72.78 3.97.94 8.44.67 12.12-.27 3.68-1.1 6.86-2.29 9.95-1.19 3.09-2.77 5.68-4.86 8.58-2.09 2.91-4.16 6.36-7.69 8.86-3.53 2.5-11.24 5.11-13.49 6.13M252.018 130.433c1.76-.93 7.46-3.37 10.53-5.59 3.08-2.21 5.59-4.83 7.93-7.7s4.42-5.97 6.12-9.5c1.69-3.53 3.25-7.73 4.04-11.7.78-3.96.94-8.43.67-12.1-.27-3.67-1.1-6.85-2.29-9.93s-2.76-5.67-4.85-8.57c-2.08-2.9-4.15-6.35-7.67-8.84-3.53-2.5-11.23-5.1-13.47-6.12m-1.01 80.05c1.76-.93 7.46-3.37 10.53-5.59 3.08-2.21 5.59-4.83 7.93-7.7s4.42-5.97 6.12-9.5c1.69-3.53 3.25-7.73 4.04-11.7.78-3.96.94-8.43.67-12.1-.27-3.67-1.1-6.85-2.29-9.93s-2.76-5.67-4.85-8.57c-2.08-2.9-4.15-6.35-7.67-8.84-3.53-2.5-11.23-5.1-13.47-6.12M168.753 155.816h83.56m-83.56 0h83.56M215.278 130.499c6.1-.01 30.52-.05 36.62-.07m-36.62.07c6.1-.01 30.52-.05 36.62-.07M209.219 237.73c.06-9.23.29-46.14.34-55.37m-.34 55.37c.06-9.23.29-46.14.34-55.37" stroke="#4599c3" stroke-width="4" fill="none" stroke-linecap="round"/><path d="M198.921 42.627c.05 8.03.27 40.17.33 48.21m-.33-48.21c.05 8.03.27 40.17.33 48.21M201.003 92.956c0 .11-.01.21-.02.31-.02.09-.05.19-.08.29-.04.09-.08.19-.13.27-.05.09-.11.17-.18.25-.06.08-.14.15-.22.21-.07.07-.16.13-.25.18-.08.05-.18.09-.27.12-.1.04-.2.07-.3.08a1.526 1.526 0 0 1-.61 0c-.1-.01-.2-.04-.29-.08a1.39 1.39 0 0 1-.53-.3c-.08-.06-.15-.13-.22-.21-.06-.08-.12-.16-.17-.25a.96.96 0 0 1-.13-.27c-.04-.1-.07-.2-.08-.29a1.553 1.553 0 0 1 0-.61c.01-.1.04-.19.08-.29a.96.96 0 0 1 .13-.27c.05-.09.11-.17.17-.25.07-.08.14-.15.22-.21.08-.07.16-.13.25-.18.09-.05.18-.09.28-.13.09-.03.19-.06.29-.07a1.553 1.553 0 0 1 .61 0c.1.01.2.04.3.07.09.04.19.08.27.13.09.05.18.11.25.18.08.06.16.13.22.21.07.08.13.16.18.25.05.08.09.18.13.27.03.1.06.19.08.29.01.1.02.25.02.3.01.05.01-.05 0 0M200.701 40.779c0 .11-.01.21-.02.31-.02.09-.05.19-.08.29-.04.09-.08.19-.13.27-.05.09-.11.17-.18.25-.06.08-.14.15-.22.21-.07.07-.16.13-.25.18-.08.05-.18.09-.27.12-.1.04-.2.07-.3.08a1.526 1.526 0 0 1-.61 0c-.1-.01-.2-.04-.29-.08a1.39 1.39 0 0 1-.53-.3c-.08-.06-.15-.13-.22-.21-.06-.08-.12-.16-.17-.25a.96.96 0 0 1-.13-.27c-.04-.1-.07-.2-.08-.29a1.553 1.553 0 0 1 0-.61c.01-.1.04-.19.08-.29a.96.96 0 0 1 .13-.27c.05-.09.11-.17.17-.25.07-.08.14-.15.22-.21.08-.07.16-.13.25-.18.09-.05.18-.09.28-.13.09-.03.19-.06.29-.07a1.553 1.553 0 0 1 .61 0c.1.01.2.04.3.07.09.04.19.08.27.13.09.05.18.11.25.18.08.06.16.13.22.21.07.08.13.16.18.25.05.08.09.18.13.27.03.1.06.19.08.29.01.1.02.25.02.3.01.05.01-.05 0 0" stroke="#4599c3" fill="none" stroke-linecap="round"/><g stroke-linecap="round"><path d="M129.689 57.61c.01.09.02.189.01.29-.01.092-.019.194-.049.287-.02.093-.05.187-.09.282a1.952 1.952 0 0 1-.331.478c-.073.068-.146.136-.22.194-.085.06-.17.11-.256.149-.085.049-.183.08-.28.11-.087.03-.187.04-.286.051-.1.01-.2.021-.3.012-.092-.01-.194-.02-.288-.05a1.107 1.107 0 0 1-.28-.09 1.465 1.465 0 0 1-.258-.143 1.045 1.045 0 0 1-.23-.187c-.078-.062-.136-.136-.194-.21a3.324 3.324 0 0 1-.159-.255 1.434 1.434 0 0 1-.1-.27 1.504 1.504 0 0 1-.06-.286c-.01-.1-.011-.2-.001-.291 0-.101.018-.204.039-.296.03-.094.06-.188.101-.273.04-.094.081-.18.143-.256.052-.086.114-.163.187-.232.063-.067.136-.135.22-.194.076-.049.16-.108.256-.148.086-.04.182-.08.27-.1a1.526 1.526 0 0 1 .588-.063c.1 0 .203.018.295.039.093.02.188.06.282.09.084.041.17.092.256.143.076.053.153.115.232.187.067.063.135.136.194.22.059.075.108.16.147.246.05.085.08.183.11.28.03.087.046.236.052.286.015.049.004-.05 0 0" fill="#1e1e1e"/><path d="M129.689 57.61c.01.09.02.189.01.29-.01.092-.019.194-.049.287-.02.093-.05.187-.09.282a1.952 1.952 0 0 1-.331.478c-.073.068-.146.136-.22.194-.085.06-.17.11-.256.149-.085.049-.183.08-.28.11-.087.03-.187.04-.286.051-.1.01-.2.021-.3.012-.092-.01-.194-.02-.288-.05a1.107 1.107 0 0 1-.28-.09 1.465 1.465 0 0 1-.258-.143 1.045 1.045 0 0 1-.23-.187c-.078-.062-.136-.136-.194-.21a3.324 3.324 0 0 1-.159-.255 1.434 1.434 0 0 1-.1-.27 1.504 1.504 0 0 1-.06-.286c-.01-.1-.011-.2-.001-.291 0-.101.018-.204.039-.296.03-.094.06-.188.101-.273.04-.094.081-.18.143-.256.052-.086.114-.163.187-.232.063-.067.136-.135.22-.194.076-.049.16-.108.256-.148.086-.04.182-.08.27-.1a1.526 1.526 0 0 1 .588-.063c.1 0 .203.018.295.039.093.02.188.06.282.09.084.041.17.092.256.143.076.053.153.115.232.187.067.063.135.136.194.22.059.075.108.16.147.246.05.085.08.183.11.28.03.087.046.236.052.286.015.049.004-.05 0 0" stroke="#4599c3" stroke-width="4" fill="none"/></g><g stroke-linecap="round"><path d="M173.057 30.892c.01.09.02.189.011.29-.01.092-.019.194-.05.287-.02.093-.05.187-.09.282a1.952 1.952 0 0 1-.33.478c-.074.068-.147.136-.22.194-.085.06-.17.11-.257.149-.085.049-.182.08-.28.11-.087.03-.186.04-.286.051-.099.01-.198.021-.3.012-.092-.01-.193-.02-.287-.05a1.107 1.107 0 0 1-.281-.09 1.465 1.465 0 0 1-.257-.143 1.045 1.045 0 0 1-.231-.187c-.077-.062-.136-.136-.194-.21-.06-.084-.109-.17-.158-.255a1.434 1.434 0 0 1-.1-.27 1.504 1.504 0 0 1-.06-.286c-.01-.1-.012-.2-.001-.291-.001-.1.018-.204.038-.296.03-.094.06-.188.102-.273.04-.094.081-.18.143-.256.051-.086.113-.163.187-.232.063-.067.136-.135.22-.194.075-.049.16-.108.256-.148.086-.04.182-.08.27-.1a1.526 1.526 0 0 1 .587-.063c.1 0 .203.018.296.039.093.02.188.06.281.09.085.041.171.092.257.144.076.052.153.114.231.186.067.063.136.136.195.22.058.075.108.16.147.246.05.085.08.183.11.28.03.087.046.236.051.286.016.049.005-.05 0 0" fill="#1e1e1e"/><path d="M173.057 30.892c.01.09.02.189.011.29-.01.092-.019.194-.05.287-.02.093-.05.187-.09.282a1.952 1.952 0 0 1-.33.478c-.074.068-.147.136-.22.194-.085.06-.17.11-.257.149-.085.049-.182.08-.28.11-.087.03-.186.04-.286.051-.099.01-.198.021-.3.012-.092-.01-.193-.02-.287-.05a1.107 1.107 0 0 1-.281-.09 1.465 1.465 0 0 1-.257-.143 1.045 1.045 0 0 1-.231-.187c-.077-.062-.136-.136-.194-.21-.06-.084-.109-.17-.158-.255a1.434 1.434 0 0 1-.1-.27 1.504 1.504 0 0 1-.06-.286c-.01-.1-.012-.2-.001-.291-.001-.1.018-.204.038-.296.03-.094.06-.188.102-.273.04-.094.081-.18.143-.256.051-.086.113-.163.187-.232.063-.067.136-.135.22-.194.075-.049.16-.108.256-.148.086-.04.182-.08.27-.1a1.526 1.526 0 0 1 .587-.063c.1 0 .203.018.296.039.093.02.188.06.281.09.085.041.171.092.257.144.076.052.153.114.231.186.067.063.136.136.195.22.058.075.108.16.147.246.05.085.08.183.11.28.03.087.046.236.051.286.016.049.005-.05 0 0" stroke="#4599c3" stroke-width="4" fill="none"/></g><path d="M140.83 247.861c-1.99-.03-9.95-.16-11.94-.2m11.94.2c-1.99-.03-9.95-.16-11.94-.2M141.165 106.623c-1.99-.03-9.95-.16-11.94-.2m11.94.2c-1.99-.03-9.95-.16-11.94-.2M257.634 30.801c-13.8.01-69 .07-82.8.09m82.8-.09c-13.8.01-69 .07-82.8.09M112.539 30.91h-71.7m71.7 0h-71.7" stroke="#4599c3" stroke-width="4" fill="none" stroke-linecap="round"/><g stroke-linecap="round"><path d="M171.05 57.62c.01.09.021.189.012.29-.01.092-.02.194-.05.287-.02.093-.05.187-.09.282a1.952 1.952 0 0 1-.331.478c-.073.068-.146.136-.22.194-.085.06-.17.109-.256.148-.085.05-.183.08-.28.11-.087.03-.187.041-.286.052-.1.01-.2.021-.3.012-.092-.01-.194-.02-.288-.05a1.107 1.107 0 0 1-.28-.09 1.465 1.465 0 0 1-.258-.144 1.045 1.045 0 0 1-.23-.186c-.078-.062-.136-.136-.194-.21-.06-.085-.11-.17-.159-.255a1.434 1.434 0 0 1-.1-.27 1.504 1.504 0 0 1-.06-.286c-.01-.1-.011-.2-.001-.292 0-.1.018-.203.039-.295.03-.094.06-.188.101-.273.04-.095.081-.18.144-.257.05-.086.113-.163.186-.23.063-.068.136-.136.22-.196.076-.048.16-.107.256-.148.086-.04.182-.08.27-.1a1.526 1.526 0 0 1 .588-.062c.1 0 .203.018.295.038.093.02.188.06.282.09.085.042.17.093.256.144.076.053.153.115.232.187.067.063.135.136.194.22.059.074.108.16.147.246.05.085.08.182.11.28.03.087.046.236.052.286.015.049.004-.05 0 0" fill="#1e1e1e"/><path d="M171.05 57.62c.01.09.021.189.012.29-.01.092-.02.194-.05.287-.02.093-.05.187-.09.282a1.952 1.952 0 0 1-.331.478c-.073.068-.146.136-.22.194-.085.06-.17.109-.256.148-.085.05-.183.08-.28.11-.087.03-.187.041-.286.052-.1.01-.2.021-.3.012-.092-.01-.194-.02-.288-.05a1.107 1.107 0 0 1-.28-.09 1.465 1.465 0 0 1-.258-.144 1.045 1.045 0 0 1-.23-.186c-.078-.062-.136-.136-.194-.21-.06-.085-.11-.17-.159-.255a1.434 1.434 0 0 1-.1-.27 1.504 1.504 0 0 1-.06-.286c-.01-.1-.011-.2-.001-.292 0-.1.018-.203.039-.295.03-.094.06-.188.101-.273.04-.095.081-.18.144-.257.05-.086.113-.163.186-.23.063-.068.136-.136.22-.196.076-.048.16-.107.256-.148.086-.04.182-.08.27-.1a1.526 1.526 0 0 1 .588-.062c.1 0 .203.018.295.038.093.02.188.06.282.09.085.042.17.093.256.144.076.053.153.115.232.187.067.063.135.136.194.22.059.074.108.16.147.246.05.085.08.182.11.28.03.087.046.236.052.286.015.049.004-.05 0 0" stroke="#4599c3" stroke-width="4" fill="none"/></g><path d="M141.165 106.37c4.673-8.085 23.356-40.449 28.02-48.534m-28.02 48.535c4.673-8.086 23.356-40.45 28.02-48.535" stroke="#4599c3" stroke-width="4" fill="none" stroke-linecap="round"/><path d="M199.76 195.193c.004 8.151.001 40.774-.005 48.934m.005-48.934c.004 8.151.001 40.774-.005 48.934M201.703 245.94c-.001.1-.013.21-.034.309-.011.1-.043.2-.084.289-.031.1-.082.189-.133.278a2.07 2.07 0 0 1-.174.238c-.07.08-.142.148-.222.217-.081.06-.162.118-.253.167-.09.049-.19.097-.281.126-.1.039-.201.058-.301.076a1.526 1.526 0 0 1-.61-.008 1.754 1.754 0 0 1-.577-.217 2.196 2.196 0 0 1-.248-.173 2.284 2.284 0 0 1-.217-.223 2.07 2.07 0 0 1-.167-.242 1.425 1.425 0 0 1-.127-.282.961.961 0 0 1-.076-.29 1.628 1.628 0 0 1 .008-.61c.011-.1.043-.2.084-.29.031-.1.082-.189.133-.278.052-.09.113-.169.174-.248.07-.069.142-.148.222-.207a1.437 1.437 0 0 1 .534-.293c.1-.039.201-.068.301-.076a1.553 1.553 0 0 1 .61.008c.1.011.2.042.3.084a1.437 1.437 0 0 1 .526.307c.078.06.147.141.216.212.06.081.118.162.167.252.049.091.098.182.127.282.038.09.067.191.076.291a2 2 0 0 1 .026.3c0 .05 0-.05 0 0M201.526 193.096c-.001.1-.013.21-.034.31-.011.1-.042.2-.084.289-.03.1-.082.189-.133.278a2.07 2.07 0 0 1-.173.238c-.071.079-.142.148-.223.217-.08.059-.162.118-.252.167-.091.049-.192.097-.282.126-.1.039-.2.058-.301.076a1.526 1.526 0 0 1-.61-.008 1.754 1.754 0 0 1-.577-.217 2.196 2.196 0 0 1-.248-.173 2.284 2.284 0 0 1-.217-.223 2.07 2.07 0 0 1-.167-.242 1.425 1.425 0 0 1-.126-.282.961.961 0 0 1-.077-.291 1.628 1.628 0 0 1 .008-.61c.012-.1.043-.2.084-.289.031-.1.083-.189.134-.278.05-.09.112-.169.173-.248.07-.07.142-.148.223-.207a1.437 1.437 0 0 1 .533-.293c.101-.039.201-.068.302-.076a1.553 1.553 0 0 1 .61.008c.1.01.199.042.298.083.09.032.19.073.279.124.09.051.168.112.247.183.08.061.149.142.218.213.059.08.118.162.166.252.05.09.098.182.127.282.039.09.067.19.076.29a2 2 0 0 1 .026.301c0 .05 0-.05 0 0" stroke="#4599c3" fill="none" stroke-linecap="round"/><path d="M215.282 129.812c0 .37-.04.74-.1 1.1-.06.37-.15.73-.27 1.07-.12.35-.27.69-.45 1.01-.17.32-.38.63-.6.91-.23.28-.48.54-.75.78s-.56.45-.87.64c-.3.18-.63.34-.96.47-.33.12-.67.22-1.02.28-.34.07-.7.1-1.05.1a6.175 6.175 0 0 1-2.08-.38c-.33-.13-.65-.29-.96-.47-.3-.19-.59-.4-.86-.64s-.52-.5-.75-.78c-.23-.28-.43-.59-.61-.91-.17-.32-.32-.66-.44-1.01-.12-.34-.22-.7-.28-1.07a6.71 6.71 0 0 1 0-2.2c.06-.37.16-.73.28-1.08.12-.34.27-.68.44-1a6.282 6.282 0 0 1 1.36-1.69c.27-.24.56-.45.86-.64.31-.18.63-.34.96-.47a6.175 6.175 0 0 1 2.08-.38c.35 0 .71.03 1.05.1.35.06.69.16 1.02.28.33.13.66.29.96.47.31.19.6.4.87.64.27.23.52.5.75.78.22.28.43.59.6.91.18.32.33.66.45 1 .12.35.21.71.27 1.08.06.36.08.92.1 1.1.01.18.01-.18 0 0" stroke="#4599c3" stroke-width="4" fill="none" stroke-linecap="round"/><g stroke-linecap="round"><path d="M260.762 30.764c0 .11-.01.21-.02.31-.02.09-.05.19-.08.29-.04.09-.08.19-.13.27-.05.09-.11.17-.18.25-.06.08-.14.15-.22.21-.07.07-.16.13-.25.18-.08.05-.18.09-.27.12-.1.04-.2.07-.3.08a1.526 1.526 0 0 1-.61 0c-.1-.01-.2-.04-.29-.08a1.39 1.39 0 0 1-.53-.3c-.08-.06-.15-.13-.22-.21-.06-.08-.12-.16-.17-.25a.96.96 0 0 1-.13-.27c-.04-.1-.07-.2-.08-.29a1.553 1.553 0 0 1 0-.61c.01-.1.04-.19.08-.29a.96.96 0 0 1 .13-.27c.05-.09.11-.17.17-.25.07-.08.14-.15.22-.21.08-.07.16-.13.25-.18.09-.05.18-.09.28-.13.09-.03.19-.06.29-.07a1.553 1.553 0 0 1 .61 0c.1.01.2.04.3.07.09.04.19.08.27.13.09.05.18.11.25.18.08.06.16.13.22.21.07.08.13.16.18.25.05.08.09.18.13.27.03.1.06.19.08.29.01.1.02.25.02.3.01.05.01-.05 0 0" fill="#1e1e1e"/><path d="M260.762 30.764c0 .11-.01.21-.02.31-.02.09-.05.19-.08.29-.04.09-.08.19-.13.27-.05.09-.11.17-.18.25-.06.08-.14.15-.22.21-.07.07-.16.13-.25.18-.08.05-.18.09-.27.12-.1.04-.2.07-.3.08a1.526 1.526 0 0 1-.61 0c-.1-.01-.2-.04-.29-.08a1.39 1.39 0 0 1-.53-.3c-.08-.06-.15-.13-.22-.21-.06-.08-.12-.16-.17-.25a.96.96 0 0 1-.13-.27c-.04-.1-.07-.2-.08-.29a1.553 1.553 0 0 1 0-.61c.01-.1.04-.19.08-.29a.96.96 0 0 1 .13-.27c.05-.09.11-.17.17-.25.07-.08.14-.15.22-.21.08-.07.16-.13.25-.18.09-.05.18-.09.28-.13.09-.03.19-.06.29-.07a1.553 1.553 0 0 1 .61 0c.1.01.2.04.3.07.09.04.19.08.27.13.09.05.18.11.25.18.08.06.16.13.22.21.07.08.13.16.18.25.05.08.09.18.13.27.03.1.06.19.08.29.01.1.02.25.02.3.01.05.01-.05 0 0" stroke="#4599c3" stroke-width="4" fill="none"/></g><g stroke-linecap="round"><path d="M43.501 30.884c0 .11-.01.21-.02.31-.02.09-.05.19-.08.29-.04.09-.08.19-.13.27-.05.09-.11.17-.18.25-.06.08-.14.15-.22.21-.07.07-.16.13-.25.18-.08.05-.18.09-.27.12-.1.04-.2.07-.3.08a1.526 1.526 0 0 1-.61 0c-.1-.01-.2-.04-.29-.08a1.39 1.39 0 0 1-.53-.3c-.08-.06-.15-.13-.22-.21-.06-.08-.12-.16-.17-.25a.96.96 0 0 1-.13-.27c-.04-.1-.07-.2-.08-.29a1.553 1.553 0 0 1 0-.61c.01-.1.04-.19.08-.29a.96.96 0 0 1 .13-.27c.05-.09.11-.17.17-.25.07-.08.14-.15.22-.21.08-.07.16-.13.25-.18.09-.05.18-.09.28-.13.09-.03.19-.06.29-.07a1.553 1.553 0 0 1 .61 0c.1.01.2.04.3.07.09.04.19.08.27.13.09.05.18.11.25.18.08.06.16.13.22.21.07.08.13.16.18.25.05.08.09.18.13.27.03.1.06.19.08.29.01.1.02.25.02.3.01.05.01-.05 0 0" fill="#1e1e1e"/><path d="M43.501 30.884c0 .11-.01.21-.02.31-.02.09-.05.19-.08.29-.04.09-.08.19-.13.27-.05.09-.11.17-.18.25-.06.08-.14.15-.22.21-.07.07-.16.13-.25.18-.08.05-.18.09-.27.12-.1.04-.2.07-.3.08a1.526 1.526 0 0 1-.61 0c-.1-.01-.2-.04-.29-.08a1.39 1.39 0 0 1-.53-.3c-.08-.06-.15-.13-.22-.21-.06-.08-.12-.16-.17-.25a.96.96 0 0 1-.13-.27c-.04-.1-.07-.2-.08-.29a1.553 1.553 0 0 1 0-.61c.01-.1.04-.19.08-.29a.96.96 0 0 1 .13-.27c.05-.09.11-.17.17-.25.07-.08.14-.15.22-.21.08-.07.16-.13.25-.18.09-.05.18-.09.28-.13.09-.03.19-.06.29-.07a1.553 1.553 0 0 1 .61 0c.1.01.2.04.3.07.09.04.19.08.27.13.09.05.18.11.25.18.08.06.16.13.22.21.07.08.13.16.18.25.05.08.09.18.13.27.03.1.06.19.08.29.01.1.02.25.02.3.01.05.01-.05 0 0" stroke="#4599c3" stroke-width="4" fill="none"/></g><path d="M88.029 158.04c6.363 10.934 31.796 54.68 38.16 65.613m-38.16-65.612c6.363 10.933 31.796 54.678 38.16 65.612" stroke="#4599c3" fill="none" stroke-linecap="round"/><path d="M168.255 155.817c0 .37-.04.74-.1 1.1-.06.37-.15.73-.27 1.07-.12.35-.27.69-.45 1.01-.17.32-.38.63-.6.91-.23.28-.48.54-.75.78s-.56.45-.87.64c-.3.18-.63.34-.96.47-.33.12-.67.22-1.02.28-.34.07-.7.1-1.05.1a6.175 6.175 0 0 1-2.08-.38c-.33-.13-.65-.29-.96-.47-.3-.19-.59-.4-.86-.64s-.52-.5-.75-.78c-.23-.28-.43-.59-.61-.91-.17-.32-.32-.66-.44-1.01-.12-.34-.22-.7-.28-1.07a6.71 6.71 0 0 1 0-2.2c.06-.37.16-.73.28-1.08.12-.34.27-.68.44-1a6.282 6.282 0 0 1 1.36-1.69c.27-.24.56-.45.86-.64.31-.18.63-.34.96-.47a6.175 6.175 0 0 1 2.08-.38c.35 0 .71.03 1.05.1.35.06.69.16 1.02.28.33.13.66.29.96.47.31.19.6.4.87.64.27.23.52.5.75.78.22.28.43.59.6.91.18.32.33.66.45 1 .12.35.21.71.27 1.08.06.36.08.92.1 1.1.01.18.01-.18 0 0M48.466 247.665c0 .37-.04.74-.1 1.1-.06.37-.15.73-.27 1.07-.12.35-.27.69-.45 1.01-.17.32-.38.63-.6.91-.23.28-.48.54-.75.78s-.56.45-.87.64c-.3.18-.63.34-.96.47-.33.12-.67.22-1.02.28-.34.07-.7.1-1.05.1a6.175 6.175 0 0 1-2.08-.38c-.33-.13-.65-.29-.96-.47-.3-.19-.59-.4-.86-.64s-.52-.5-.75-.78c-.23-.28-.43-.59-.61-.91-.17-.32-.32-.66-.44-1.01-.12-.34-.22-.7-.28-1.07a6.71 6.71 0 0 1 0-2.2c.06-.37.16-.73.28-1.08.12-.34.27-.68.44-1a6.282 6.282 0 0 1 1.36-1.69c.27-.24.56-.45.86-.64.31-.18.63-.34.96-.47a6.175 6.175 0 0 1 2.08-.38c.35 0 .71.03 1.05.1.35.06.69.16 1.02.28.33.13.66.29.96.47.31.19.6.4.87.64.27.23.52.5.75.78.22.28.43.59.6.91.18.32.33.66.45 1 .12.35.21.71.27 1.08.06.36.08.92.1 1.1.01.18.01-.18 0 0M179.147 103.024h58.06m-58.06 0h58.06M188.84 258.36v-62.77m0 62.77v-62.77M61.647 56.596v162.93m0-162.93v162.93M128.184 247.542c-9.21-15.95-18.42-31.9-40.52-70.18m40.52 70.18c-15.2-26.32-30.39-52.64-40.52-70.18M141.165 247.542c14.11-24.45 28.23-48.89 38.25-66.25m-38.25 66.25c7.78-13.47 15.55-26.94 38.25-66.25M128.184 206.34c-5.52-9.56-11.04-19.11-25.25-43.74m25.25 43.74c-6.97-12.07-13.93-24.13-25.25-43.74M141.165 247.542s0 0 0 0m0 0s0 0 0 0M128.184 106.37c-9.63-16.67-19.25-33.35-28.63-49.59m28.63 49.59c-11.26-19.5-22.52-39-28.63-49.59M128.184 57.979c-5.63-9.75-11.25-19.49-15.63-27.07m15.63 27.07c-5.44-9.43-10.89-18.86-15.63-27.07M61.997 56.12h36.83m-36.83 0h36.83" stroke="#4599c3" stroke-width="4" fill="none" stroke-linecap="round"/><path d="M88.673 156.34c0 .1-.012.21-.034.31-.01.1-.042.199-.083.288-.032.1-.083.19-.134.279a2.07 2.07 0 0 1-.173.238c-.071.079-.142.148-.223.217-.08.059-.161.118-.252.166-.09.05-.191.098-.282.127-.1.038-.2.057-.3.076a1.526 1.526 0 0 1-.61-.008 1.754 1.754 0 0 1-.577-.217 2.196 2.196 0 0 1-.249-.174 2.284 2.284 0 0 1-.217-.223 2.07 2.07 0 0 1-.167-.242 1.425 1.425 0 0 1-.126-.281.961.961 0 0 1-.076-.291 1.628 1.628 0 0 1 .008-.61c.01-.1.042-.2.083-.29.032-.099.083-.188.134-.278.051-.089.112-.168.173-.247.071-.07.142-.149.223-.208a1.437 1.437 0 0 1 .534-.293c.1-.038.2-.067.3-.076a1.553 1.553 0 0 1 .61.008c.1.011.2.043.3.084a1.437 1.437 0 0 1 .526.307c.079.06.148.142.217.213.059.08.118.161.167.252.049.09.097.181.126.282.039.09.068.19.076.29a2 2 0 0 1 .026.3c0 .05.001-.05 0 0M129.16 225.17c-.001.1-.013.209-.034.309-.011.1-.043.2-.084.289-.031.1-.082.189-.133.278a2.07 2.07 0 0 1-.174.238c-.07.079-.141.148-.222.217-.081.059-.162.118-.253.167-.09.048-.19.097-.281.126-.1.039-.201.057-.301.076a1.526 1.526 0 0 1-.61-.008 1.754 1.754 0 0 1-.577-.217 2.196 2.196 0 0 1-.248-.174 2.284 2.284 0 0 1-.217-.222 2.07 2.07 0 0 1-.167-.243 1.425 1.425 0 0 1-.127-.281.961.961 0 0 1-.076-.291 1.628 1.628 0 0 1 .008-.61c.011-.1.043-.2.084-.29.031-.099.082-.188.133-.277.052-.09.113-.169.174-.248.07-.07.142-.148.222-.207a1.437 1.437 0 0 1 .534-.293c.1-.04.201-.068.301-.076a1.553 1.553 0 0 1 .61.007c.1.012.2.043.3.084a1.437 1.437 0 0 1 .526.307c.078.061.147.142.216.213.06.08.118.162.167.252.05.09.098.181.127.282.038.09.067.19.076.29a2 2 0 0 1 .026.301c0 .05 0-.05 0 0" stroke="#4599c3" fill="none" stroke-linecap="round"/></svg>
